<svg width="2490" height="2489" viewBox="0 0 2490 2489" fill="none" xmlns="http://www.w3.org/2000/svg">
<g clip-path="url(#clip0)">
<rect width="2489" height="2489" transform="translate(0.901733)" fill="#20262f"/>
<path d="M2035.28 233.516H1761.95L1119.51 2256.94H1390.43L2035.28 233.516Z" fill="white"/>
<path d="M2490.85 232.031H2217.52L1575.08 2255.46H1846L2490.85 232.031Z" fill="white"/>
<path d="M274.226 233.516L449.743 886.011H452.423L664.116 233.516H873.128L1071.42 886.011H1074.1L1264.36 233.516H1537.68L1214.78 1243.74H946.819L769.962 658.24H767.282L568.988 1243.74H302.363L0.901855 233.516H274.226Z" fill="white"/>
<circle cx="760.067" cy="1866.72" r="333.301" stroke="#FF434F" stroke-opacity="0.8" stroke-width="110.873"/>
<circle cx="760.068" cy="1866.72" r="149.837" fill="white" fill-opacity="0.8"/>
<path d="M1192.01 1310.66L1151.2 1435.41L359.781 1435.41L323.214 1310.66L1192.01 1310.66Z" fill="#FA646D"/>
</g>
<defs>
<clipPath id="clip0">
<rect width="2489" height="2489" fill="white" transform="translate(0.901733)"/>
</clipPath>
</defs>
</svg>
