<svg width="2296" height="642" viewBox="0 0 2296 642" fill="none" xmlns="http://www.w3.org/2000/svg">
<path d="M1005.96 0.519531L1043.39 139.691H1043.97L1089.12 0.519531H1133.7L1175.99 139.691H1176.56L1217.14 0.519531H1275.44L1206.57 215.993H1149.42L1111.69 91.1098H1111.12L1068.83 215.993H1011.96L947.66 0.519531H1005.96Z" fill="white"/>
<path d="M1438.07 69.391V215.993H1386.06V199.704H1385.49C1381.3 206.562 1375.58 211.706 1368.34 215.135C1361.1 218.374 1353.58 220.184 1345.77 220.565C1345 220.756 1344.24 220.851 1343.48 220.851C1342.72 220.851 1341.95 220.851 1341.19 220.851C1319.47 220.851 1301.66 213.135 1287.75 197.703C1274.04 182.081 1267.18 163.792 1267.18 142.835C1267.18 121.878 1273.94 103.684 1287.47 88.252C1301.18 72.6297 1318.9 64.8186 1340.62 64.8186C1341.57 64.8186 1342.53 64.8186 1343.48 64.8186C1344.43 64.8186 1345.38 64.9138 1346.34 65.1044C1353.77 65.6759 1361.01 67.5811 1368.06 70.8198C1375.3 73.8681 1381.3 78.25 1386.06 83.9654V69.391H1438.07ZM1354.34 109.685C1343.86 109.876 1335.67 113.305 1329.76 119.973C1323.86 126.45 1320.9 134.166 1320.9 143.121C1320.9 152.456 1323.86 160.267 1329.76 166.554C1335.67 172.841 1343.86 175.985 1354.34 175.985C1365.01 175.985 1373.2 172.841 1378.91 166.554C1384.82 160.267 1387.77 152.456 1387.77 143.121C1387.77 134.166 1384.82 126.45 1378.91 119.973C1373.2 113.305 1365.01 109.971 1354.34 109.971V109.685Z" fill="white"/>
<path d="M1524.56 69.391V93.3959H1525.13C1530.08 84.6322 1536.65 78.1547 1544.85 73.9633C1553.23 69.772 1562.47 67.6763 1572.57 67.6763L1582.57 67.3905V117.401C1581.81 117.21 1581.04 116.925 1580.28 116.544C1579.71 116.163 1579.04 115.877 1578.28 115.686C1575.42 114.543 1572.57 113.781 1569.71 113.4C1566.85 113.019 1563.8 112.829 1560.56 112.829C1546.08 112.829 1536.46 117.115 1531.7 125.688C1526.94 134.071 1524.56 144.549 1524.56 157.123V215.993H1472.55V69.391H1524.56Z" fill="white"/>
<path d="M1679.63 172.841H1741.36V215.993H1592.76L1661.63 112.543H1601.9V69.391H1748.22L1679.63 172.841Z" fill="white"/>
<path d="M1844.69 64.5328C1868.32 64.7233 1888.89 71.6771 1906.42 85.3943C1924.14 98.9209 1933 118.163 1933 143.121C1933 167.888 1924.14 187.034 1906.42 200.561C1888.89 214.088 1868.32 220.851 1844.69 220.851C1821.26 220.851 1800.69 214.183 1782.97 200.847C1765.25 187.32 1756.39 168.078 1756.39 143.121C1756.39 118.163 1765.15 98.9209 1782.68 85.3943C1800.4 71.6771 1821.07 64.8186 1844.69 64.8186V64.5328ZM1844.69 109.685C1834.22 109.876 1826.02 113.305 1820.12 119.973C1814.21 126.45 1811.26 134.166 1811.26 143.121C1811.26 152.456 1814.21 160.267 1820.12 166.554C1826.02 172.841 1834.22 175.985 1844.69 175.985C1855.36 175.985 1863.56 172.841 1869.27 166.554C1875.18 160.267 1878.13 152.456 1878.13 143.121C1878.13 134.166 1875.18 126.45 1869.27 119.973C1863.56 113.305 1855.36 109.971 1844.69 109.971V109.685Z" fill="white"/>
<path d="M2008.47 69.391V88.252H2009.05C2015.14 79.4883 2021.91 73.3918 2029.34 69.9625C2036.96 66.5332 2045.82 64.8186 2055.91 64.8186C2075.73 64.8186 2089.82 70.4388 2098.21 81.6792C2106.78 92.9197 2111.07 107.589 2111.07 125.688V215.993H2059.06V144.549C2059.06 144.168 2059.06 143.692 2059.06 143.121C2059.06 142.549 2059.06 141.977 2059.06 141.406C2059.06 139.691 2059.06 137.881 2059.06 135.976C2059.06 134.071 2058.96 132.166 2058.77 130.261C2058.39 124.355 2056.67 118.925 2053.63 113.972C2050.58 108.828 2044.58 106.256 2035.62 106.256C2025.14 106.256 2018 109.685 2014.19 116.544C2010.38 123.212 2008.47 131.118 2008.47 140.263V215.993H1956.46V69.391H2008.47Z" fill="white"/>
<path d="M2296 145.978V151.408H2186.55C2186.55 162.077 2189.31 170.269 2194.84 175.985C2200.36 181.509 2208.46 184.272 2219.13 184.272C2224.65 184.272 2229.41 183.224 2233.42 181.128C2237.61 179.033 2241.13 175.604 2243.99 170.841L2294 170.555C2289.81 188.082 2280.47 200.847 2265.99 208.848C2251.71 216.85 2236.18 220.851 2219.41 220.851C2195.22 220.851 2175.02 214.278 2158.83 201.133C2142.64 187.796 2134.54 168.459 2134.54 143.121C2134.54 118.735 2142.06 99.5877 2157.11 85.6801C2172.36 71.7724 2191.88 64.8186 2215.7 64.8186C2241.23 64.8186 2260.95 72.1534 2274.85 86.8232C2288.95 101.493 2296 121.307 2296 146.264V145.978ZM2187.41 121.402H2247.7C2246.37 114.543 2242.85 109.018 2237.13 104.827C2231.61 100.636 2225.32 98.5399 2218.27 98.5399C2210.65 98.5399 2203.98 100.54 2198.27 104.541C2192.55 108.351 2188.93 114.067 2187.41 121.688V121.402Z" fill="white"/>
<path d="M1114.93 501.652L1216.58 634.185H1111.93L1032.58 509.802H1031.73V634.185H947.66V310.788H1073.33C1105.35 311.074 1132.09 319.224 1153.54 335.236C1174.98 350.963 1185.7 376.125 1185.7 410.724C1185.7 433.027 1179.56 452.9 1167.26 470.342C1155.25 487.498 1137.81 498.078 1114.93 502.081V501.652ZM1031.73 375.125V455.759H1039.87C1041.3 456.045 1042.73 456.188 1044.16 456.188C1045.59 456.188 1046.88 456.188 1048.02 456.188C1060.61 455.616 1072.04 452.757 1082.34 447.61C1092.92 442.177 1098.21 431.597 1098.21 415.871C1098.21 400.144 1092.92 389.707 1082.34 384.561C1072.04 379.128 1060.61 376.125 1048.02 375.553C1046.88 375.553 1045.59 375.553 1044.16 375.553C1042.73 375.553 1041.3 375.553 1039.87 375.553L1031.73 375.125Z" fill="#FA646D"/>
<path d="M1478.08 414.155V634.185H1400.02V609.737H1399.17C1392.88 620.031 1384.3 627.751 1373.43 632.898C1362.57 637.759 1351.27 640.476 1339.55 641.048C1338.4 641.333 1337.26 641.476 1336.12 641.476C1334.97 641.476 1333.83 641.476 1332.68 641.476C1300.09 641.476 1273.35 629.896 1252.48 606.735C1231.89 583.288 1221.6 555.838 1221.6 524.385C1221.6 492.931 1231.75 465.624 1252.05 442.463C1272.64 419.016 1299.23 407.293 1331.83 407.293C1333.26 407.293 1334.69 407.293 1336.12 407.293C1337.55 407.293 1338.98 407.436 1340.41 407.722C1351.56 408.579 1362.42 411.439 1373 416.3C1383.87 420.875 1392.88 427.451 1400.02 436.03V414.155H1478.08ZM1352.41 474.631C1336.69 474.917 1324.39 480.064 1315.53 490.072C1306.66 499.794 1302.23 511.374 1302.23 524.813C1302.23 538.824 1306.66 550.548 1315.53 559.984C1324.39 569.42 1336.69 574.138 1352.41 574.138C1368.43 574.138 1380.72 569.42 1389.3 559.984C1398.16 550.548 1402.6 538.824 1402.6 524.813C1402.6 511.374 1398.16 499.794 1389.3 490.072C1380.72 480.064 1368.43 475.06 1352.41 475.06V474.631Z" fill="#FA646D"/>
<path d="M1607.89 414.155V442.463H1608.75C1617.9 429.31 1628.05 420.16 1639.2 415.013C1650.64 409.866 1663.93 407.293 1679.09 407.293C1708.83 407.293 1729.99 415.728 1742.57 432.598C1755.43 449.469 1761.87 471.486 1761.87 498.65V634.185H1683.81V526.958C1683.81 526.386 1683.81 525.671 1683.81 524.813C1683.81 523.956 1683.81 523.098 1683.81 522.24C1683.81 519.667 1683.81 516.95 1683.81 514.091C1683.81 511.231 1683.66 508.372 1683.38 505.513C1682.81 496.649 1680.23 488.499 1675.66 481.065C1671.08 473.344 1662.07 469.484 1648.64 469.484C1632.91 469.484 1622.19 474.631 1616.47 484.925C1610.75 494.933 1607.89 506.799 1607.89 520.524V634.185H1529.83V414.155H1607.89Z" fill="#FA646D"/>
<path d="M1891.45 278.191V493.503L1972.52 414.155H2079.32L1969.09 515.806L2086.18 634.185H1976.81L1891.45 544.543V634.185H1813.39V278.191H1891.45Z" fill="#FA646D"/>
<path d="M2280.09 413.823L2253.92 463.577C2250.49 461.861 2246.63 460.288 2242.34 458.859C2238.34 457.429 2234.19 456.285 2229.9 455.427C2226.76 454.856 2223.61 454.427 2220.47 454.141C2217.61 453.569 2214.75 453.283 2211.89 453.283C2210.46 453.283 2208.89 453.426 2207.17 453.712C2205.74 453.712 2204.31 453.998 2202.88 454.57C2198.88 455.427 2195.31 457 2192.16 459.288C2189.01 461.289 2187.44 464.292 2187.44 468.295C2187.44 473.156 2189.44 476.873 2193.45 479.446C2197.74 481.734 2202.45 483.449 2207.6 484.593C2210.46 485.451 2213.18 486.166 2215.75 486.738C2218.32 487.024 2220.61 487.31 2222.61 487.595C2240.91 491.313 2256.07 498.032 2268.08 507.754C2280.37 517.476 2286.52 532.488 2286.52 552.789C2286.52 580.811 2276.23 601.256 2255.64 614.123C2235.05 626.705 2212.32 633.424 2187.44 634.282C2186.58 634.282 2185.73 634.282 2184.87 634.282C2184.3 634.282 2183.58 634.282 2182.72 634.282C2167 634.282 2151.56 632.137 2136.4 627.848C2121.53 623.559 2107.38 617.412 2093.94 609.405L2122.25 554.505C2127.11 558.222 2132.68 561.654 2138.98 564.799C2145.27 567.658 2151.7 570.232 2158.28 572.519C2162.85 573.949 2167.28 575.093 2171.57 575.951C2175.86 576.808 2180.01 577.237 2184.01 577.237C2185.15 577.237 2186.3 577.237 2187.44 577.237C2188.87 576.951 2190.3 576.665 2191.73 576.379C2196.02 575.522 2199.88 573.806 2203.31 571.233C2206.74 568.659 2208.46 565.085 2208.46 560.51C2208.46 554.219 2205.46 549.787 2199.45 547.214C2193.45 544.354 2186.3 542.067 2178.01 540.351C2174.86 539.779 2171.72 539.207 2168.57 538.636C2165.71 537.778 2162.71 536.92 2159.56 536.062C2147.27 532.917 2135.97 527.484 2125.68 519.764C2115.67 511.757 2110.67 497.889 2110.67 478.16C2110.67 451.567 2120.53 431.98 2140.26 419.399C2159.99 406.818 2181.58 400.384 2205.03 400.098C2205.6 400.098 2206.03 400.098 2206.31 400.098C2206.89 400.098 2207.31 400.098 2207.6 400.098C2220.18 400.098 2232.48 401.242 2244.49 403.53C2256.78 405.531 2268.65 409.105 2280.09 414.252V413.823Z" fill="#FA646D"/>
<path d="M636.77 0.984375H551.218L350.132 634.328H434.93L636.77 0.984375Z" fill="white"/>
<path d="M779.365 0.519531H693.813L492.727 633.863H577.526L779.365 0.519531Z" fill="white"/>
<path d="M85.5525 0.984375L140.49 205.219H141.329L207.59 0.984375H273.012L335.079 205.219H335.918L395.469 0.984375H481.021L379.952 317.191H296.077L240.72 133.925H239.882L177.814 317.191H94.3593L0.000488281 0.984375H85.5525Z" fill="white"/>
<circle cx="237.623" cy="512.185" r="104.325" stroke="#FF434F" stroke-opacity="0.8" stroke-width="34.7038"/>
<circle cx="237.623" cy="512.185" r="46.8997" fill="white" fill-opacity="0.8"/>
<path d="M372.823 338.137L360.048 377.183L112.332 377.183L100.886 338.137L372.823 338.137Z" fill="#FA646D"/>
</svg>
